<?xml version="1.0" standalone="no"?>
<!DOCTYPE svg PUBLIC "-//W3C//DTD SVG 20010904//EN"
 "http://www.w3.org/TR/2001/REC-SVG-20010904/DTD/svg10.dtd">
<svg version="1.0" xmlns="http://www.w3.org/2000/svg"
 width="128.000000pt" height="128.000000pt" viewBox="0 0 128.000000 128.000000"
 preserveAspectRatio="xMidYMid meet">
<metadata>
Created by potrace 1.14, written by Peter Selinger 2001-2017
</metadata>
<g transform="translate(0.000000,128.000000) scale(0.100000,-0.100000)"
fill="#000000" stroke="none">
<path d="M0 640 l0 -640 640 0 640 0 0 640 0 640 -640 0 -640 0 0 -640z m887
510 c141 -18 204 -69 211 -170 5 -69 -14 -118 -60 -153 -57 -44 -139 -57 -369
-57 -274 0 -355 16 -419 85 -20 21 -25 39 -28 95 -4 58 -1 75 17 104 32 50
109 83 236 99 62 8 343 6 412 -3z m231 -502 l-3 -73 -177 -3 -178 -2 0 -30 0
-30 160 0 160 0 0 -175 0 -175 -425 0 -425 0 0 175 0 175 165 0 165 0 0 30 0
30 -180 0 -180 0 0 75 0 75 460 0 461 0 -3 -72z"/>
<path d="M453 1000 c-27 -11 -31 -51 -8 -70 10 -8 71 -12 210 -12 164 0 199 2
220 16 31 20 32 40 3 60 -19 13 -56 16 -213 15 -104 0 -200 -4 -212 -9z"/>
<path d="M430 335 l0 -45 225 0 225 0 0 45 0 45 -225 0 -225 0 0 -45z"/>
</g>
</svg>
